<svg width="25" height="25" viewBox="0 0 25 25" fill="none" xmlns="http://www.w3.org/2000/svg">
<g clip-path="url(#clip0_155_579)">
<path d="M24.6262 15.523C22.9561 22.223 16.1679 26.2958 9.47747 24.6256C2.77727 22.9555 -1.29558 16.1676 0.374636 9.47726C2.04475 2.77726 8.82307 -1.29559 15.5233 0.374621C22.2137 2.03497 26.2964 8.82286 24.6262 15.523Z" fill="url(#paint0_linear_155_579)"/>
<path d="M18.4517 10.9424C18.6958 9.28223 17.436 8.38379 15.6978 7.78809L16.2642 5.53223L14.897 5.19043L14.3501 7.3877C13.9888 7.2998 13.6177 7.21191 13.2466 7.13379L13.7935 4.92676L12.4263 4.58496L11.8696 6.83105C11.5669 6.76269 11.2739 6.69434 10.9907 6.62598V6.61621L9.09619 6.14746L8.73486 7.6123C8.73486 7.6123 9.75049 7.84668 9.73096 7.85644C10.2876 7.99316 10.3853 8.36426 10.3657 8.65723L9.72119 11.2256C9.76025 11.2354 9.80908 11.2451 9.86768 11.2744C9.81885 11.2646 9.77002 11.2549 9.72119 11.2354L8.82275 14.8291C8.75439 14.9951 8.57861 15.249 8.19775 15.1514C8.20752 15.1709 7.20166 14.9072 7.20166 14.9072L6.51807 16.4795L8.30518 16.9287C8.63721 17.0166 8.95947 17.0947 9.28174 17.1826L8.71533 19.458L10.0825 19.7998L10.6489 17.5439C11.02 17.6416 11.3911 17.7393 11.7427 17.8271L11.186 20.0732L12.5532 20.415L13.1196 18.1396C15.4634 18.5791 17.2212 18.4033 17.9536 16.2842C18.5493 14.585 17.9243 13.5986 16.6938 12.9541C17.6021 12.749 18.2759 12.1533 18.4517 10.9424ZM15.3169 15.3369C14.897 17.0361 12.0259 16.1182 11.0981 15.8838L11.8501 12.8662C12.7778 13.1006 15.7661 13.5596 15.3169 15.3369ZM15.7466 10.9131C15.356 12.4658 12.9731 11.6748 12.2017 11.4795L12.8853 8.74512C13.6567 8.94043 16.147 9.30176 15.7466 10.9131Z" fill="white"/>
</g>
<defs>
<linearGradient id="paint0_linear_155_579" x1="12.4934" y1="-0.00587792" x2="12.4934" y2="24.9976" gradientUnits="userSpaceOnUse">
<stop stop-color="#F9AA4B"/>
<stop offset="1" stop-color="#F7931A"/>
</linearGradient>
<clipPath id="clip0_155_579">
<rect width="25" height="25" fill="white"/>
</clipPath>
</defs>
</svg>
