<svg width="40" height="40" viewBox="0 0 40 40" fill="none" xmlns="http://www.w3.org/2000/svg">
<g clip-path="url(#clip0_307_366)">
<path d="M17.7778 1.25005C17.7778 0.703177 18.0903 0.218802 18.5556 0.0547397C19.0208 -0.109323 19.5208 0.0859897 19.7986 0.531302L35.3542 25.5313C35.5903 25.9141 35.6181 26.4141 35.4306 26.8282C35.2431 27.2422 34.8611 27.5001 34.4444 27.5001H18.8889C18.2778 27.5001 17.7778 26.9376 17.7778 26.2501V1.25005ZM14.7292 7.53911C15.2153 7.68755 15.5556 8.17974 15.5556 8.75005V26.2501C15.5556 26.9376 15.0556 27.5001 14.4444 27.5001H5.55555C5.15972 27.5001 4.79167 27.2657 4.59722 26.8751C4.40278 26.4844 4.39583 26.0157 4.59028 25.6251L13.4792 8.12505C13.7292 7.63286 14.2431 7.39068 14.7292 7.53911ZM0.395832 31.586C0.194443 30.7891 0.729166 30.0001 1.46528 30.0001H38.5347C39.2708 30.0001 39.8055 30.7891 39.6042 31.586L39.3264 32.7032C38.243 37.0235 34.75 40.0001 30.7639 40.0001H9.23611C5.25 40.0001 1.75694 37.0235 0.67361 32.711L0.395832 31.5938V31.586Z" fill="black"/>
</g>
<defs>
<clipPath id="clip0_307_366">
<rect width="40" height="40" fill="white"/>
</clipPath>
</defs>
</svg>
