<svg width="50" height="50" viewBox="0 0 50 50" fill="none" xmlns="http://www.w3.org/2000/svg">
<mask id="mask0_307_354" style="mask-type:alpha" maskUnits="userSpaceOnUse" x="4" y="4" width="42" height="42">
<path d="M9.375 23.9584H40.625V35.4167C40.625 35.9692 40.4055 36.4991 40.0148 36.8898C39.6241 37.2806 39.0942 37.5 38.5417 37.5H11.4583C10.9058 37.5 10.3759 37.2806 9.98519 36.8898C9.59449 36.4991 9.375 35.9692 9.375 35.4167V23.9584Z" fill="white" stroke="white" stroke-width="4" stroke-linejoin="round"/>
<path d="M9.375 8.33333C9.375 7.7808 9.59449 7.25089 9.98519 6.86019C10.3759 6.46949 10.9058 6.25 11.4583 6.25H38.5417C39.0942 6.25 39.6241 6.46949 40.0148 6.86019C40.4055 7.25089 40.625 7.7808 40.625 8.33333V23.9583H9.375V8.33333Z" stroke="white" stroke-width="4" stroke-linejoin="round"/>
<path d="M15.625 43.75C14.7962 43.75 14.0013 43.4208 13.4153 42.8347C12.8292 42.2487 12.5 41.4538 12.5 40.625V37.5H18.75V40.625C18.75 41.4538 18.4208 42.2487 17.8347 42.8347C17.2487 43.4208 16.4538 43.75 15.625 43.75ZM34.375 43.75C33.5462 43.75 32.7513 43.4208 32.1653 42.8347C31.5792 42.2487 31.25 41.4538 31.25 40.625V37.5H37.5V40.625C37.5 41.4538 37.1708 42.2487 36.5847 42.8347C35.9987 43.4208 35.2038 43.75 34.375 43.75Z" fill="white" stroke="white" stroke-width="4" stroke-linecap="round" stroke-linejoin="round"/>
<path d="M6.25 12.5V16.6667M43.75 12.5V16.6667" stroke="white" stroke-width="4" stroke-linecap="round"/>
<path d="M15.625 33.3333C16.7756 33.3333 17.7083 32.4006 17.7083 31.25C17.7083 30.0994 16.7756 29.1666 15.625 29.1666C14.4744 29.1666 13.5417 30.0994 13.5417 31.25C13.5417 32.4006 14.4744 33.3333 15.625 33.3333Z" fill="black"/>
<path d="M34.375 33.3333C35.5256 33.3333 36.4583 32.4006 36.4583 31.25C36.4583 30.0994 35.5256 29.1666 34.375 29.1666C33.2244 29.1666 32.2917 30.0994 32.2917 31.25C32.2917 32.4006 33.2244 33.3333 34.375 33.3333Z" fill="black"/>
<path d="M32.2917 6.25L22.9167 16.6667M39.5833 7.29167L34.375 13.5417" stroke="white" stroke-width="4" stroke-linecap="round"/>
</mask>
<g mask="url(#mask0_307_354)">
<path d="M0 0H50V50H0V0Z" fill="black"/>
</g>
</svg>
