<svg width="50" height="50" viewBox="0 0 50 50" fill="none" xmlns="http://www.w3.org/2000/svg">
<path fill-rule="evenodd" clip-rule="evenodd" d="M23.215 3.75C25.2425 3.75 26.8835 5.4395 26.8835 7.467C26.8835 9.494 25.2425 11.1835 23.215 11.1835C21.1875 11.1835 19.498 9.494 19.498 7.467C19.498 5.4395 21.188 3.75 23.215 3.75ZM23.4565 11.5215C24.8515 11.478 25.93 12.346 26.4975 13.2595L30.359 19.6795L37.117 22.5275C39.0475 23.3475 38.1305 25.906 35.9585 25.327C35.8808 25.2742 35.8002 25.2258 35.717 25.182L31.1795 35.222C31.1795 35.222 32.6275 38.553 34.462 42.3185C36.248 46.1315 31.9035 47.773 30.3105 44.249L28.718 40.677L26.401 45.7455L25.4355 45.311L28.1385 39.422L23.601 29.527C23.408 29.575 23.215 29.527 22.9735 29.527C22.9735 29.527 17.712 41.4975 16.2635 44.6355C14.864 47.773 10.713 45.8905 12.1125 42.8005C13.5125 39.7115 20.174 24.6995 20.174 24.6995L15.2225 24.7805C14.4725 24.787 14.293 24.6675 14.2455 24.1055C14.169 22.6205 14.038 19.1265 14.3815 17.507C14.8245 15.4195 15.089 13.122 16.5535 12.4385C18.0185 11.755 20.56 13.6455 20.56 13.6455C20.946 12.3905 22.153 11.5215 23.4565 11.5215ZM26.449 19.0515V24.845L30.6005 33.92L34.7515 24.7965L28.718 22.2865C28.428 22.1415 28.187 21.9485 27.9935 21.659L26.449 19.0515Z" fill="black"/>
</svg>
