<svg width="50" height="50" viewBox="0 0 50 50" fill="none" xmlns="http://www.w3.org/2000/svg">
<path d="M6.25 47.9167C5.65972 47.9167 5.16528 47.7167 4.76667 47.3167C4.36667 46.9181 4.16667 46.4236 4.16667 45.8334C4.16667 45.2431 4.36667 44.7486 4.76667 44.35C5.16528 43.95 5.65972 43.75 6.25 43.75C7.15278 43.75 8.04722 43.6368 8.93333 43.4104C9.81806 43.1854 10.6597 42.8299 11.4583 42.3438C11.7708 42.1702 12.1181 42.0834 12.5 42.0834C12.8819 42.0834 13.2292 42.1702 13.5417 42.3438C14.3403 42.8299 15.1826 43.1854 16.0688 43.4104C16.9535 43.6368 17.8472 43.75 18.75 43.75C19.6528 43.75 20.5472 43.6368 21.4333 43.4104C22.3181 43.1854 23.1597 42.8299 23.9583 42.3438C24.2708 42.1702 24.6271 42.0834 25.0271 42.0834C25.4257 42.0834 25.7639 42.1702 26.0417 42.3438C26.8403 42.8299 27.6826 43.1854 28.5688 43.4104C29.4535 43.6368 30.3472 43.75 31.25 43.75C32.1528 43.75 33.0472 43.6368 33.9333 43.4104C34.8181 43.1854 35.6597 42.8299 36.4583 42.3438C36.7361 42.1702 37.0833 42.0834 37.5 42.0834C37.9167 42.0834 38.2639 42.1702 38.5417 42.3438C39.3403 42.8299 40.1819 43.1854 41.0667 43.4104C41.9528 43.6368 42.8472 43.75 43.75 43.75C44.3403 43.75 44.8347 43.95 45.2333 44.35C45.6333 44.7486 45.8333 45.2431 45.8333 45.8334C45.8333 46.4236 45.6333 46.9181 45.2333 47.3167C44.8347 47.7167 44.3403 47.9167 43.75 47.9167C42.6736 47.9167 41.6146 47.7861 40.5729 47.525C39.5313 47.2653 38.507 46.875 37.5 46.3542C36.4931 46.875 35.4688 47.2653 34.4271 47.525C33.3854 47.7861 32.3264 47.9167 31.25 47.9167C30.1736 47.9167 29.1146 47.7861 28.0729 47.525C27.0313 47.2653 26.0069 46.875 25 46.3542C23.9931 46.875 22.9688 47.2653 21.9271 47.525C20.8854 47.7861 19.8264 47.9167 18.75 47.9167C17.6736 47.9167 16.6146 47.7861 15.5729 47.525C14.5313 47.2653 13.5069 46.875 12.5 46.3542C11.4931 46.875 10.4688 47.2653 9.42708 47.525C8.38542 47.7861 7.32639 47.9167 6.25 47.9167ZM25 19.7917C23.8542 19.7917 22.8736 19.3834 22.0583 18.5667C21.2417 17.7514 20.8333 16.7709 20.8333 15.625C20.8333 14.4792 21.2417 13.4986 22.0583 12.6834C22.8736 11.8667 23.8542 11.4584 25 11.4584C26.1458 11.4584 27.1271 11.8667 27.9438 12.6834C28.759 13.4986 29.1667 14.4792 29.1667 15.625C29.1667 16.7709 28.759 17.7514 27.9438 18.5667C27.1271 19.3834 26.1458 19.7917 25 19.7917ZM18.75 39.5834C17.8125 39.5834 16.9271 39.4097 16.0938 39.0625C15.2604 38.7153 14.4965 38.2639 13.8021 37.7084C13.4201 37.3959 12.9778 37.2396 12.475 37.2396C11.9708 37.2396 11.5278 37.3959 11.1458 37.7084C10.6944 38.0556 10.2257 38.3681 9.73958 38.6459C9.25347 38.9236 8.73264 39.1493 8.17708 39.3229L6.71875 38.9063C6.23264 38.7674 5.74653 38.6111 5.26042 38.4375C4.25347 38.125 3.75 37.4653 3.75 36.4584C3.75 35.4514 4.25347 34.7917 5.26042 34.4792C6.78819 33.9931 8.37639 33.55 10.025 33.15C11.675 32.7514 13.2812 32.4132 14.8438 32.1354L17.6563 23.4375C18.0382 22.257 18.7583 21.4757 19.8167 21.0938C20.8764 20.7118 21.875 20.7639 22.8125 21.25L28.125 23.9584L34.0104 20.8334L37.4479 13.125L36.7188 11.1459C36.6493 10.8681 36.6146 10.6077 36.6146 10.3646C36.6146 10.1216 36.6667 9.86114 36.7708 9.58336L38.3333 6.09377C38.5764 5.53822 38.9667 5.15627 39.5042 4.94794C40.0431 4.73961 40.5729 4.75697 41.0938 5.00003L43.9063 6.30211C44.4618 6.54516 44.8438 6.93544 45.0521 7.47294C45.2604 8.01183 45.2431 8.54169 45 9.06252L43.4375 12.5521C43.3333 12.8299 43.1771 13.0556 42.9688 13.2292C42.7604 13.4028 42.5174 13.5417 42.2396 13.6459L40.3125 14.375L32.6042 31.7709C34.6528 32.0139 36.7278 32.3785 38.8292 32.8646C40.9292 33.3507 42.8993 33.8889 44.7396 34.4792C45.7118 34.7917 46.1979 35.4514 46.1979 36.4584C46.1979 37.4653 45.7118 38.125 44.7396 38.4375C44.2535 38.6111 43.759 38.7674 43.2563 38.9063C42.7521 39.0452 42.2743 39.1841 41.8229 39.3229C41.2674 39.1493 40.7375 38.932 40.2333 38.6709C39.7306 38.4111 39.2535 38.0903 38.8021 37.7084C38.4201 37.3959 37.9861 37.2396 37.5 37.2396C37.0139 37.2396 36.5799 37.3959 36.1979 37.7084C35.5035 38.2639 34.7396 38.7153 33.9063 39.0625C33.0729 39.4097 32.1875 39.5834 31.25 39.5834C30.3125 39.5834 29.4271 39.4097 28.5938 39.0625C27.7604 38.7153 26.9965 38.2639 26.3021 37.7084C25.9201 37.3959 25.4861 37.2396 25 37.2396C24.5139 37.2396 24.0799 37.3959 23.6979 37.7084C23.0035 38.2639 22.2396 38.7153 21.4062 39.0625C20.5729 39.4097 19.6875 39.5834 18.75 39.5834ZM29.3229 31.4063L31.3021 26.9792L28.125 28.6459L24.4792 26.7709L23.0208 31.25H25C25.7292 31.25 26.4583 31.2584 27.1875 31.275C27.9167 31.2931 28.6285 31.3368 29.3229 31.4063Z" fill="black"/>
</svg>
