<svg width="25" height="25" viewBox="0 0 25 25" fill="none" xmlns="http://www.w3.org/2000/svg">
<g clip-path="url(#clip0_196_415)">
<path d="M4.54493 24.8758V23.2211C4.54493 22.5867 4.24473 22.1731 3.73018 22.1731C3.47295 22.1731 3.19424 22.2834 3.00127 22.642C2.85127 22.3386 2.63692 22.1731 2.31534 22.1731C2.10088 22.1731 1.88662 22.2558 1.71504 22.5592V22.2283H1.26485V24.8758H1.71504V23.4141C1.71504 22.9454 1.90801 22.7246 2.20821 22.7246C2.50821 22.7246 2.6584 22.9729 2.6584 23.4141V24.8758H3.1086V23.4141C3.1086 22.9454 3.32285 22.7246 3.60157 22.7246C3.90176 22.7246 4.05176 22.9729 4.05176 23.4141V24.8758H4.54493V24.8758ZM11.212 22.2283H10.4832V21.4285H10.033V22.2283H9.62569V22.7522H10.0329V23.9657C10.0329 24.5725 10.2259 24.9309 10.7404 24.9309C10.9334 24.9309 11.1477 24.8483 11.2979 24.738L11.1691 24.2415C11.0405 24.3518 10.8905 24.3794 10.7833 24.3794C10.5689 24.3794 10.4832 24.214 10.4832 23.9381V22.7522H11.212V22.2283V22.2283ZM15.028 22.173C14.7708 22.173 14.5993 22.3386 14.4921 22.5592V22.2283H14.0419V24.8758H14.4921V23.3866C14.4921 22.9454 14.6421 22.6971 14.9208 22.6971C15.0065 22.6971 15.1138 22.7248 15.1995 22.7523L15.3281 22.2008C15.2424 22.1731 15.1138 22.1731 15.028 22.1731V22.173ZM9.26123 22.4489C9.04678 22.2558 8.74668 22.1731 8.4251 22.1731C7.91065 22.1731 7.56768 22.504 7.56768 23.028C7.56768 23.4694 7.82491 23.7175 8.2751 23.8003L8.48946 23.8279C8.7253 23.8829 8.85391 23.9657 8.85391 24.1037C8.85391 24.2966 8.68243 24.4346 8.38223 24.4346C8.08213 24.4346 7.84629 24.2966 7.69619 24.1588L7.48184 24.6C7.71768 24.8206 8.03926 24.9309 8.36075 24.9309C8.96104 24.9309 9.30411 24.5725 9.30411 24.076C9.30411 23.6072 9.02539 23.3589 8.59658 23.2763L8.38223 23.2486C8.18926 23.221 8.03926 23.166 8.03926 23.0005C8.03926 22.8074 8.18926 22.6971 8.4251 22.6971C8.68242 22.6971 8.93965 22.8349 9.06826 22.9177L9.26123 22.4489V22.4489ZM21.2236 22.1731C20.9663 22.1731 20.7948 22.3386 20.6876 22.5592V22.2283H20.2374V24.8758H20.6876V23.3866C20.6876 22.9454 20.8377 22.6971 21.1163 22.6971C21.2022 22.6971 21.3094 22.7248 21.3951 22.7523L21.5237 22.2008C21.438 22.1731 21.3094 22.1731 21.2236 22.1731V22.1731ZM15.4782 23.552C15.4782 24.3518 15.9069 24.9309 16.5716 24.9309C16.8717 24.9309 17.086 24.8483 17.3004 24.6277L17.086 24.1588C16.9146 24.3243 16.7431 24.4069 16.5501 24.4069C16.1856 24.4069 15.9284 24.076 15.9284 23.552C15.9284 23.0557 16.1856 22.7246 16.5501 22.6971C16.7431 22.6971 16.9146 22.7798 17.086 22.9454L17.3004 22.4765C17.086 22.2558 16.8717 22.1731 16.5716 22.1731C15.9069 22.1731 15.4782 22.7523 15.4782 23.552ZM19.6372 23.552V22.2283H19.187V22.5592C19.0369 22.3111 18.8226 22.1731 18.5439 22.1731C17.965 22.1731 17.5148 22.7523 17.5148 23.552C17.5148 24.3518 17.965 24.9309 18.5439 24.9309C18.8439 24.9309 19.0584 24.7931 19.187 24.5449V24.8758H19.6372V23.552V23.552ZM17.9864 23.552C17.9864 23.0832 18.2223 22.6971 18.6081 22.6971C18.9726 22.6971 19.2299 23.0557 19.2299 23.552C19.2299 24.0209 18.9726 24.4069 18.6081 24.4069C18.2223 24.3793 17.9864 24.0209 17.9864 23.552V23.552ZM12.6056 22.1731C12.0053 22.1731 11.5765 22.7246 11.5765 23.552C11.5765 24.3794 12.0052 24.9309 12.627 24.9309C12.9271 24.9309 13.2272 24.8206 13.4631 24.5725L13.2486 24.1588C13.0772 24.3243 12.8628 24.4346 12.6484 24.4346C12.3697 24.4346 12.091 24.2691 12.0267 23.8001H13.5488V23.5797C13.5703 22.7246 13.1844 22.1731 12.6055 22.1731H12.6056ZM12.6056 22.6695C12.8842 22.6695 13.0772 22.8902 13.12 23.3039H12.0481C12.091 22.9454 12.284 22.6695 12.6056 22.6695ZM23.7747 23.552V21.1803H23.3245V22.5592C23.1744 22.3111 22.9601 22.1731 22.6814 22.1731C22.1025 22.1731 21.6523 22.7523 21.6523 23.552C21.6523 24.3518 22.1025 24.9309 22.6814 24.9309C22.9815 24.9309 23.1959 24.7931 23.3245 24.5449V24.8758H23.7747V23.552V23.552ZM22.124 23.552C22.124 23.0832 22.3598 22.6971 22.7457 22.6971C23.1102 22.6971 23.3674 23.0557 23.3674 23.552C23.3674 24.0209 23.1102 24.4069 22.7457 24.4069C22.3598 24.3793 22.124 24.0209 22.124 23.552V23.552ZM7.07451 23.552V22.2283H6.62432V22.5592C6.47422 22.3111 6.25987 22.1731 5.98116 22.1731C5.40235 22.1731 4.95215 22.7523 4.95215 23.552C4.95215 24.3518 5.40235 24.9309 5.98116 24.9309C6.28135 24.9309 6.49571 24.7931 6.62432 24.5449V24.8758H7.07451V23.552V23.552ZM5.40235 23.552C5.40235 23.0832 5.63819 22.6971 6.02403 22.6971C6.38848 22.6971 6.6458 23.0557 6.6458 23.552C6.6458 24.0209 6.38848 24.4069 6.02403 24.4069C5.63819 24.3793 5.40235 24.0209 5.40235 23.552V23.552Z" fill="black"/>
<path d="M9.11113 2.12347H15.8641V17.7329H9.11113V2.12347Z" fill="#FF5F00"/>
<path d="M9.53994 9.92827C9.53994 6.75678 10.6976 3.94372 12.4769 2.12349C11.1692 0.799749 9.51855 0 7.71777 0C3.45146 0 0 4.44008 0 9.92827C0 15.4163 3.45146 19.8565 7.71768 19.8565C9.51846 19.8565 11.1691 19.0568 12.4769 17.7329C10.6976 15.9403 9.53994 13.0997 9.53994 9.92827V9.92827Z" fill="#EB001B"/>
<path d="M24.9752 9.92827C24.9752 15.4163 21.5237 19.8565 17.2575 19.8565C15.4567 19.8565 13.8061 19.0568 12.4983 17.7329C14.2991 15.9128 15.4353 13.0997 15.4353 9.92827C15.4353 6.75678 14.2776 3.94372 12.4983 2.12349C13.806 0.799749 15.4567 0 17.2575 0C21.5237 0 24.9753 4.46771 24.9753 9.92827H24.9752Z" fill="#F79E1B"/>
</g>
<defs>
<clipPath id="clip0_196_415">
<rect width="25" height="25" fill="white"/>
</clipPath>
</defs>
</svg>
