<svg width="25" height="25" viewBox="0 0 25 25" fill="none" xmlns="http://www.w3.org/2000/svg">
<path d="M1.86509 21.8045L1.78278 22.4775C1.74557 22.8091 1.98911 23.1008 2.3048 23.1008H22.6941C23.0109 23.1008 23.2544 22.8091 23.2183 22.4775L23.1338 21.8045C23.083 21.2804 23.4393 20.801 23.9264 20.7466C24.4169 20.6897 24.8498 21.0734 24.9005 21.5963L24.9795 22.2511C25.1384 23.7145 24.365 25 22.9872 25H2.01279C0.63501 25 -0.138438 23.7157 0.0205363 22.2511L0.0994592 21.5963C0.151323 21.0734 0.583147 20.6897 1.07134 20.7466C1.55954 20.8022 1.9147 21.2804 1.86509 21.8045Z" fill="#D60510"/>
<path d="M20.7131 16.7304C21.7053 16.7329 22.4956 15.957 22.4753 14.9354C22.455 13.8896 21.5689 13.2142 20.5801 13.213H18.5844C18.1425 13.213 17.7794 12.8184 17.7794 12.3245C17.7794 11.8294 18.1413 11.4336 18.5844 11.4336H19.9182C20.8168 11.3949 21.5102 10.8103 21.5531 9.89762C21.5982 8.92081 20.8157 8.1873 19.8585 8.1873H16.6226L16.6091 16.7316H20.7131V16.7304ZM23.1665 9.89157C23.1665 10.7824 22.8722 11.2872 22.3851 11.9081L22.3367 11.9711L22.4043 12.0159C23.3683 12.6465 24.0414 13.6003 24.091 14.939C24.1654 16.9338 22.5915 18.5836 20.7221 18.58H15.7951C15.3159 18.58 14.928 18.1515 14.928 17.6249V7.36542C14.928 6.83647 15.3159 6.4104 15.7928 6.4104L19.8607 6.4225C21.6342 6.42371 23.1665 7.82296 23.1665 9.89157Z" fill="black"/>
<path d="M7.28599 15.0624L7.30854 15.1351L7.33334 15.0624C7.56222 14.387 7.83733 13.639 8.12934 12.8232C8.43038 11.965 8.73029 11.1443 9.0302 10.3624C9.33349 9.56835 9.61986 8.86026 9.89384 8.24295C10.1667 7.61232 10.3933 7.17899 10.5681 6.94175C10.8375 6.59557 11.1938 6.42126 11.6369 6.42126H11.841C12.1127 6.42126 12.3247 6.49752 12.4837 6.64277C12.6291 6.77955 12.7159 6.9369 12.7407 7.11726L14.0136 17.7181C14.0136 17.9917 13.9404 18.2023 13.796 18.3596C13.6517 18.5061 13.4454 18.5787 13.1759 18.5787C12.9065 18.5787 12.6922 18.5097 12.5355 18.3754C12.3619 18.241 12.2627 18.0643 12.2379 17.8452C12.195 17.493 12.1556 17.1008 12.1161 16.6711C12.0597 16.2426 11.8613 14.3931 11.8049 13.9271C11.753 13.4465 11.3945 10.452 11.2727 9.36379L11.2615 9.2718L10.8533 10.1905C10.7146 10.5064 10.5647 10.8865 10.4001 11.3283C10.2377 11.7701 10.0709 12.2373 9.90737 12.73C9.72923 13.2081 8.94112 15.6265 8.94112 15.6265C8.86784 15.8456 8.72916 16.2874 8.60401 16.6941C8.4766 17.0984 8.36048 17.4639 8.32891 17.5341C8.14175 17.9336 7.77644 18.1974 7.31192 18.2011C6.84177 18.1986 6.47646 17.9336 6.29156 17.5341C6.25773 17.4639 6.1416 17.0972 6.0142 16.6941C5.88679 16.2874 5.7515 15.8456 5.67483 15.6265C5.67483 15.6265 4.88672 13.2081 4.71084 12.73C4.54623 12.2373 4.38161 11.7713 4.217 11.3283C4.05239 10.8865 3.90244 10.5064 3.76714 10.1905L3.35674 9.2718L3.34772 9.36379C3.2237 10.452 2.86854 13.4465 2.81442 13.9271C2.75805 14.3931 2.55961 16.2426 2.50549 16.6711C2.46378 17.1008 2.42319 17.493 2.38034 17.8452C2.35554 18.0643 2.25632 18.241 2.08495 18.3754C1.92597 18.5097 1.71288 18.5787 1.44229 18.5787C1.17282 18.5787 0.968745 18.5061 0.824428 18.3596C0.680111 18.2023 0.606825 17.9892 0.605698 17.7181L1.87862 7.11726C1.9068 6.9369 1.99137 6.77955 2.13681 6.64277C2.29466 6.49752 2.51 6.42126 2.77722 6.42126H2.98354C3.42777 6.42126 3.78292 6.59678 4.05126 6.94175C4.22715 7.17899 4.45152 7.61111 4.72549 8.24295C5.0006 8.86026 5.28698 9.56835 5.58914 10.3624C5.88905 11.1443 6.19008 11.965 6.49225 12.8232C6.78201 13.639 7.05711 14.387 7.28599 15.0624Z" fill="black"/>
<path d="M4.78751 0H20.2745C21.7335 0 22.4596 1.17653 22.6298 2.72707L22.6952 3.22335C22.7471 3.75593 22.3829 4.23284 21.8958 4.28852C21.4076 4.34419 20.969 3.95928 20.9183 3.4267L20.8563 2.95221C20.7909 2.36274 20.5586 1.90883 20.0005 1.90883H5.06149C4.50339 1.90883 4.27113 2.36274 4.20573 2.95221L4.14598 3.4267C4.09524 3.95928 3.65778 4.34541 3.1662 4.28852C2.678 4.23284 2.31383 3.75593 2.36682 3.22335L2.43221 2.72707C2.60472 1.17532 3.32968 0 4.78751 0Z" fill="#D60510"/>
</svg>
