<svg width="25" height="25" viewBox="0 0 25 25" fill="none" xmlns="http://www.w3.org/2000/svg">
<g clip-path="url(#clip0_155_582)">
<path d="M21.2078 1.94596C19.8471 0.631225 17.3873 0.0675659 14.2405 0.0675659H5.10772C4.79638 0.0675757 4.49525 0.161733 4.25848 0.33311C4.0217 0.504487 3.86481 0.741841 3.81602 1.0025L0.0132861 21.4468C-0.0622998 21.8499 0.305962 22.215 0.787993 22.215H6.42627L7.84229 14.6015L7.79834 14.8399C7.89922 14.3018 8.44219 13.9048 9.08516 13.9048H11.7645C17.0279 13.9048 21.1493 12.0926 22.3532 6.8501C22.389 6.69505 22.4199 6.54414 22.4467 6.39671C22.2947 6.32849 22.2947 6.32849 22.4467 6.39671C22.8052 4.45904 22.4442 3.14008 21.2078 1.94596Z" fill="#27346A"/>
<path d="M9.99971 5.69869C10.1539 5.63647 10.3224 5.60423 10.4932 5.60432H17.6531C18.501 5.60432 19.2918 5.65109 20.0145 5.74968C20.2167 5.77702 20.4178 5.80965 20.6177 5.84753C20.9009 5.90051 21.1809 5.96535 21.4565 6.04182C21.8118 6.1424 22.1427 6.25954 22.4468 6.39671C22.8052 4.45829 22.4442 3.14008 21.2078 1.94596C19.8463 0.631225 17.3873 0.0675659 14.2405 0.0675659H5.10694C4.46387 0.0675659 3.9168 0.46442 3.81602 1.0025L0.0132867 21.446C-0.0622993 21.8498 0.305962 22.2144 0.787212 22.2144H6.42628L9.36407 6.4222C9.39295 6.26698 9.4659 6.12003 9.57663 5.99399C9.68735 5.86796 9.83255 5.76662 9.99971 5.69869Z" fill="#27346A"/>
<path d="M22.3532 6.85006C21.1493 12.0918 17.028 13.9048 11.7644 13.9048H9.08437C8.4414 13.9048 7.89833 14.3017 7.79843 14.8399L6.03681 24.3064C5.97099 24.6592 6.29286 24.9789 6.71396 24.9789H11.4669C11.7392 24.9788 12.0025 24.8964 12.2094 24.7465C12.4164 24.5966 12.5535 24.3889 12.5961 24.161L12.6424 23.9557L13.5382 19.1431L13.5959 18.8771C13.6384 18.6492 13.7755 18.4416 13.9825 18.2917C14.1895 18.1417 14.4527 18.0593 14.725 18.0593H15.4363C20.0405 18.0593 23.6457 16.4737 24.6992 11.8879C25.139 9.9715 24.9114 8.3715 23.7481 7.24766C23.3953 6.90726 22.9571 6.62614 22.4467 6.39667C22.419 6.54485 22.3891 6.69501 22.3532 6.85006Z" fill="#2790C3"/>
<path d="M21.1867 5.97089C20.999 5.92442 20.8095 5.88329 20.6186 5.84755C20.4186 5.81028 20.2175 5.77787 20.0153 5.75036C19.2919 5.6511 18.5017 5.60425 17.653 5.60425H10.4939C10.3231 5.60392 10.1544 5.63644 10.0005 5.69937C9.83313 5.76709 9.68777 5.86837 9.577 5.99444C9.46622 6.1205 9.39337 6.26756 9.36474 6.42288L7.84306 14.6015L7.79912 14.8399C7.89922 14.3018 8.44218 13.9048 9.08525 13.9048H11.7653C17.0288 13.9048 21.1501 12.0926 22.354 6.85011C22.3898 6.69506 22.4199 6.54481 22.4476 6.39672C22.1427 6.26029 21.8127 6.14241 21.4573 6.0425C21.3677 6.0173 21.2775 5.99342 21.1868 5.97089" fill="#1F264F"/>
</g>
<defs>
<clipPath id="clip0_155_582">
<rect width="25" height="25" fill="white"/>
</clipPath>
</defs>
</svg>
