<svg width="50" height="50" viewBox="0 0 50 50" fill="none" xmlns="http://www.w3.org/2000/svg">
<path d="M43.75 47.9167C41.6042 47.9167 39.4584 47.3958 37.5 46.3542C33.5625 48.4375 28.9375 48.4375 25 46.3542C21.0625 48.4375 16.4375 48.4375 12.5 46.3542C10.5209 47.3958 8.39585 47.9167 6.25002 47.9167H4.16669V43.75H6.25002C8.41669 43.75 10.5834 43.0208 12.5 41.6667C16.3125 44.375 21.1875 44.375 25 41.6667C28.8125 44.375 33.6875 44.375 37.5 41.6667C39.3959 43.0208 41.5834 43.75 43.75 43.75H45.8334V47.9167H43.75ZM35.4167 3.125C33.125 3.125 31.25 5 31.25 7.29167C31.25 9.58333 33.125 11.4583 35.4167 11.4583C37.7084 11.4583 39.5834 9.58333 39.5834 7.29167C39.5834 5 37.7084 3.125 35.4167 3.125ZM30.0625 17.6667L25.375 20.8333L33.3334 27.0833V35.0833C34.4375 35.875 35.4792 36.7083 36.4375 37.5208C35.0209 38.7292 33.2084 39.5833 31.25 39.5833C28.75 39.5833 26.5209 38.2083 25 36.4583C23.4792 38.2083 21.25 39.5833 18.75 39.5833C18.0625 39.5833 17.3959 39.4792 16.75 39.2917C10.8125 35.2083 6.25002 30.6667 6.25002 27.6667C6.25002 25.5208 8.35419 25 10.1042 25C12.1459 25 14.8542 25.6458 17.8125 26.7292L16.7084 20.2708C16.4792 18.875 17.0834 17.3958 18.3334 16.5417L22.8125 13.5208L18.6459 12.75L12.7709 16.7708L10.4167 13.3333L17.7084 8.33333L29.2709 10.4792C30.2084 10.6667 31.2084 11.25 31.8125 12.3333L33.6459 15.5625C34.5568 17.1628 35.8751 18.4934 37.4668 19.4191C39.0586 20.3449 40.867 20.8328 42.7084 20.8333V25C40.142 24.9965 37.6219 24.3169 35.4019 23.0294C33.1818 21.742 31.3402 19.8923 30.0625 17.6667ZM21.4584 23.125L22.375 28.6458C24.2917 29.5208 27.5417 31.2917 29.1667 32.2917V29.1667L21.4584 23.125Z" fill="black"/>
</svg>
