<svg width="25" height="25" viewBox="0 0 25 25" fill="none" xmlns="http://www.w3.org/2000/svg">
<g clip-path="url(#clip0_196_425)">
<path d="M12.9294 7.96026C12.9151 11.4289 13.9316 13.3645 14.6974 14.5154C15.4841 15.6961 15.7483 16.4533 15.7452 17.5094C15.7394 19.1253 15.1177 19.8386 14.5359 19.8663C13.521 19.9148 12.9309 19.0211 12.4617 18.3452L12.0961 23.622C12.5668 24.291 13.4384 24.8744 14.3422 24.9C16.4638 24.9 17.8518 21.6699 17.8593 16.6618C17.8676 10.3057 15.0089 9.95394 15.0284 7.11298C15.0352 6.25153 15.3017 5.33225 15.8856 5.09852C16.1747 4.98045 16.9727 4.89008 17.8773 6.17502L18.2324 1.0696C17.7459 0.523217 17.1206 2.37145e-05 16.3421 2.37145e-05C14.3452 2.37145e-05 12.9407 3.27412 12.9294 7.96026M21.6443 0.439782C21.2569 0.439782 20.9305 1.13677 20.7848 2.20635L17.7542 24.525H19.8742L20.2961 20.9289H22.8867L23.1314 24.525H25L23.3694 0.439782H21.6443M21.9409 6.94611L22.5527 15.9904H20.8771L21.9409 6.94611M10.359 0.440084L8.68789 24.5247H10.7081L12.3784 0.439481H10.359M7.37041 0.439481L5.26768 16.8332L4.41709 2.8943C4.31729 1.33828 3.92314 0.439782 3.48545 0.439782H0.0481445L0 1.13918C0.705664 1.61147 1.50742 2.37322 1.99316 3.18828C2.29043 3.68617 2.3752 4.12141 2.47285 5.30454L4.08389 24.525H6.21875L9.4918 0.439782H7.37041" fill="url(#paint0_linear_196_425)"/>
</g>
<defs>
<linearGradient id="paint0_linear_196_425" x1="11.4935" y1="25.3995" x2="13.7016" y2="-0.00150841" gradientUnits="userSpaceOnUse">
<stop stop-color="#222357"/>
<stop offset="1" stop-color="#254AA5"/>
</linearGradient>
<clipPath id="clip0_196_425">
<rect width="25" height="25" fill="white"/>
</clipPath>
</defs>
</svg>
